<svg width="23" height="23" viewBox="0 0 23 23" fill="none" xmlns="http://www.w3.org/2000/svg">
<path d="M20.9767 16.696C20.9764 16.7064 20.9762 16.7168 20.9762 16.7273V19.8636V20C20.9762 21.1046 20.0808 22 18.9762 22H18.8333H4.16667H4.02381C2.91924 22 2.02381 21.1046 2.02381 20V19.8636V16.7273C2.02381 16.7168 2.02365 16.7064 2.02332 16.696L1.59639 3.0626C1.56105 1.93405 2.46632 1 3.59541 1H19.4046C20.5337 1 21.4389 1.93405 21.4036 3.0626L20.9767 16.696Z" stroke="#808080" stroke-width="2" stroke-linejoin="round"/>
<path d="M4.5 5C4.66667 4.33333 5.1 4 5.5 4C5.9 4 7 4 7.5 4" stroke="#808080" stroke-linecap="round" stroke-linejoin="round"/>
<path d="M18.5 5C18.3333 4.33333 17.9 4 17.5 4C17.1 4 16 4 15.5 4" stroke="#808080" stroke-linecap="round" stroke-linejoin="round"/>
<path d="M7.32031 12.9238V11.8594H8.1748C8.84863 11.8594 9.30273 11.459 9.30273 10.8779C9.30273 10.3066 8.89746 9.93066 8.16504 9.93066C7.48145 9.93066 7.02734 10.3359 6.98828 10.9512H5.63086C5.68457 9.64746 6.7002 8.79785 8.22852 8.79785C9.69336 8.79785 10.6943 9.5498 10.6943 10.6777C10.6943 11.542 10.1035 12.167 9.23926 12.3232V12.3525C10.2891 12.4404 10.9678 13.0752 10.9678 14.0518C10.9678 15.3164 9.82031 16.1562 8.19434 16.1562C6.60254 16.1562 5.5625 15.2822 5.49414 13.9834H6.90527C6.94922 14.5791 7.4375 14.9697 8.21387 14.9697C8.95117 14.9697 9.46875 14.5547 9.46875 13.959C9.46875 13.3145 8.98535 12.9238 8.18945 12.9238H7.32031ZM14.6348 16.1562C12.8623 16.1562 11.7832 14.7451 11.7832 12.4648C11.7832 10.1895 12.8721 8.79297 14.6348 8.79297C16.3975 8.79297 17.4814 10.1846 17.4814 12.46C17.4814 14.7354 16.4072 16.1562 14.6348 16.1562ZM14.6348 14.9746C15.4746 14.9746 15.9824 14.0713 15.9824 12.4648C15.9824 10.873 15.4697 9.97461 14.6348 9.97461C13.8047 9.97461 13.2822 10.8779 13.2822 12.4648C13.2822 14.0664 13.7949 14.9746 14.6348 14.9746Z" fill="#808080"/>
</svg>
