<svg width="30" height="30" viewBox="0 0 30 30" fill="none" xmlns="http://www.w3.org/2000/svg">
<path d="M22.5 15C22.5 19.1421 19.1421 22.5 15 22.5C10.8579 22.5 7.5 19.1421 7.5 15C7.5 10.8579 10.8579 7.5 15 7.5C19.1421 7.5 22.5 10.8579 22.5 15Z" fill="#95949A"/>
<path fill-rule="evenodd" clip-rule="evenodd" d="M15 1.5625C15.5177 1.5625 15.9375 1.98224 15.9375 2.5V3.75C15.9375 4.26776 15.5177 4.6875 15 4.6875C14.4823 4.6875 14.0625 4.26776 14.0625 3.75V2.5C14.0625 1.98224 14.4823 1.5625 15 1.5625ZM1.5625 15C1.5625 14.4823 1.98224 14.0625 2.5 14.0625H3.75C4.26776 14.0625 4.6875 14.4823 4.6875 15C4.6875 15.5177 4.26776 15.9375 3.75 15.9375H2.5C1.98224 15.9375 1.5625 15.5177 1.5625 15ZM25.3125 15C25.3125 14.4823 25.7323 14.0625 26.25 14.0625H27.5C28.0177 14.0625 28.4375 14.4823 28.4375 15C28.4375 15.5177 28.0177 15.9375 27.5 15.9375H26.25C25.7323 15.9375 25.3125 15.5177 25.3125 15ZM15 25.3125C15.5177 25.3125 15.9375 25.7323 15.9375 26.25V27.5C15.9375 28.0177 15.5177 28.4375 15 28.4375C14.4823 28.4375 14.0625 28.0177 14.0625 27.5V26.25C14.0625 25.7323 14.4823 25.3125 15 25.3125Z" fill="#95949A" stroke="#95949A"/>
<g opacity="0.5">
<path d="M5.49724 5.50115C5.86335 5.13503 6.45695 5.13503 6.82307 5.50115L7.31412 5.9922C7.68023 6.35831 7.68023 6.9519 7.31412 7.31802C6.94799 7.68413 6.3544 7.68413 5.98829 7.31802L5.49724 6.82697C5.13113 6.46086 5.13113 5.86726 5.49724 5.50115Z" fill="white" stroke="white"/>
<path d="M24.5016 5.50115C24.8678 5.86726 24.8678 6.46086 24.5016 6.82697L24.0106 7.31802C23.6445 7.68413 23.0509 7.68413 22.6848 7.31802C22.3186 6.9519 22.3186 6.35831 22.6848 5.9922L23.1757 5.50115C23.5419 5.13503 24.1355 5.13503 24.5016 5.50115Z" fill="white" stroke="white"/>
<path d="M22.6848 22.6887C23.0509 22.3225 23.6445 22.3225 24.0106 22.6887L24.5016 23.1797C24.8678 23.5458 24.8678 24.1394 24.5016 24.5055C24.1355 24.8717 23.5419 24.8717 23.1757 24.5055L22.6848 24.0145C22.3186 23.6484 22.3186 23.0548 22.6848 22.6887Z" fill="white" stroke="white"/>
<path d="M7.31412 22.6887C7.68023 23.0548 7.68023 23.6483 7.31412 24.0144L6.82307 24.5055C6.45695 24.8717 5.86335 24.8717 5.49724 24.5055C5.13113 24.1394 5.13113 23.5458 5.49724 23.1797L5.98829 22.6887C6.3544 22.3225 6.94799 22.3225 7.31412 22.6887Z" fill="white" stroke="white"/>
</g>
</svg>
