<svg width="23" height="23" viewBox="0 0 23 23" fill="none" xmlns="http://www.w3.org/2000/svg">
<path d="M14.5549 14.8803C15.9966 14.1311 17.1863 12.9747 17.9761 11.5549C19.8353 8.34447 19.4711 4.67405 17.1807 3.35155C14.8903 2.02905 11.4978 3.5528 9.67698 6.76322C9.51137 7.05551 9.36103 7.35619 9.22656 7.66405" stroke="white" stroke-linecap="round" stroke-linejoin="round"/>
<path d="M12.5221 19.6452C14.8139 18.322 15.1701 14.6483 13.3176 11.4398C11.4652 8.23125 8.10559 6.70286 5.81377 8.02604C3.52195 9.34922 3.16577 13.0229 5.01823 16.2315C6.87068 19.44 10.2303 20.9684 12.5221 19.6452Z" stroke="white" stroke-linecap="round" stroke-linejoin="round"/>
<path d="M13.3398 11.1907C14.1161 8.91948 12.9086 7.44365 17.1732 3.35156" stroke="white" stroke-linecap="round" stroke-linejoin="round"/>
<path d="M12.4577 19.5887C6.76516 14.3754 11.9593 13.9058 5.81641 8.03125" stroke="white" stroke-linecap="round" stroke-linejoin="round"/>
</svg>
