<svg width="42" height="42" viewBox="0 0 42 42" fill="none" xmlns="http://www.w3.org/2000/svg">
<path d="M26.5855 27.1805C29.2181 25.8124 31.3906 23.7007 32.833 21.108C36.228 15.2455 35.563 8.54304 31.3805 6.12804C27.198 3.71304 21.003 6.49554 17.678 12.358C17.3756 12.8918 17.101 13.4409 16.8555 14.003" fill="#95949A"/>
<path d="M26.5855 27.1805C29.2181 25.8124 31.3906 23.7007 32.833 21.108C36.228 15.2455 35.563 8.54304 31.3805 6.12804C27.198 3.71304 21.003 6.49554 17.678 12.358C17.3756 12.8918 17.101 13.4409 16.8555 14.003" stroke="#302F35" stroke-width="2" stroke-linecap="round" stroke-linejoin="round"/>
<path d="M22.8707 35.8817C27.0558 33.4654 27.7062 26.757 24.3234 20.8979C20.9407 15.0388 14.8058 12.2478 10.6207 14.6641C6.43563 17.0803 5.78522 23.7888 9.16797 29.6479C12.5507 35.507 18.6856 38.2979 22.8707 35.8817Z" fill="#95949A" stroke="#302F35" stroke-width="2" stroke-linecap="round" stroke-linejoin="round"/>
<path d="M24.3633 20.44C25.7808 16.2925 23.5758 13.5975 31.3633 6.125" stroke="#302F35" stroke-width="2" stroke-linecap="round" stroke-linejoin="round"/>
<path d="M22.7525 35.7769C12.3575 26.2569 21.8425 25.3994 10.625 14.6719" stroke="#302F35" stroke-width="2" stroke-linecap="round" stroke-linejoin="round"/>
</svg>
