<svg width="21" height="21" viewBox="0 0 21 21" fill="none" xmlns="http://www.w3.org/2000/svg">
<g filter="url(#filter0_i_953_33494)">
<path d="M9.1875 2.625C8.79375 2.625 8.53125 2.8875 8.53125 3.28125V17.7844C8.53125 18.8344 9.38437 19.6875 10.4344 19.6875C10.9594 19.6875 11.4844 19.425 11.8781 19.0312C12.2063 18.6375 12.4031 18.1125 12.3375 17.5875L12.0094 14.3062C11.9437 13.7812 12.2719 13.2562 12.7312 13.0594C12.9937 12.9281 13.125 12.7313 13.125 12.4688V6.5625C13.125 4.39688 11.3531 2.625 9.1875 2.625Z" fill="white"/>
</g>
<g filter="url(#filter1_i_953_33494)">
<path d="M18.1781 11.55C18.1125 10.8938 18.3094 10.2375 18.7688 9.7125C19.3594 9.05625 19.6875 8.07187 19.6875 6.89062C19.6875 4.4625 18.5063 2.625 17.0625 2.625C15.6187 2.625 14.4375 4.4625 14.4375 6.89062C14.4375 8.1375 14.7656 9.12188 15.3562 9.7125C15.8156 10.2375 16.0125 10.8938 15.9469 11.55L15.2906 17.6531C15.225 18.1781 15.3562 18.7031 15.6844 19.0969C16.0125 19.4906 16.5375 19.6875 17.0625 19.6875C17.5875 19.6875 18.0469 19.4906 18.4406 19.0969C18.7688 18.7031 18.9656 18.1781 18.8344 17.7188L18.1781 11.55Z" fill="white"/>
</g>
<g filter="url(#filter2_i_953_33494)">
<path d="M6.5625 6.89062V3.28125C6.5625 2.8875 6.3 2.625 5.90625 2.625C5.5125 2.625 5.25 2.8875 5.25 3.28125V6.89062C5.25 7.02188 5.25 7.15312 5.25 7.21875H4.59375V3.28125C4.59375 2.8875 4.33125 2.625 3.9375 2.625C3.54375 2.625 3.28125 2.8875 3.28125 3.28125V7.21875H2.625C2.625 7.0875 2.625 6.95625 2.625 6.89062V3.28125C2.625 2.8875 2.3625 2.625 1.96875 2.625C1.575 2.625 1.3125 2.8875 1.3125 3.28125V6.89062C1.3125 8.1375 1.64063 9.12188 2.23125 9.7125C2.69063 10.2375 2.8875 10.8938 2.82188 11.55L2.16562 17.6531C2.1 18.1781 2.23125 18.7031 2.55938 19.0969C2.95313 19.4906 3.4125 19.6875 3.9375 19.6875C4.4625 19.6875 4.92188 19.4906 5.31563 19.0969C5.64375 18.7031 5.84062 18.1781 5.70937 17.7188L5.05312 11.6156C4.9875 10.9594 5.18438 10.3031 5.64375 9.77812C6.23438 9.05625 6.5625 8.07187 6.5625 6.89062Z" fill="white"/>
</g>
<defs>
<filter id="filter0_i_953_33494" x="8.53125" y="2.625" width="4.59375" height="17.0625" filterUnits="userSpaceOnUse" color-interpolation-filters="sRGB">
<feFlood flood-opacity="0" result="BackgroundImageFix"/>
<feBlend mode="normal" in="SourceGraphic" in2="BackgroundImageFix" result="shape"/>
<feColorMatrix in="SourceAlpha" type="matrix" values="0 0 0 0 0 0 0 0 0 0 0 0 0 0 0 0 0 0 127 0" result="hardAlpha"/>
<feOffset/>
<feGaussianBlur stdDeviation="2.1"/>
<feComposite in2="hardAlpha" operator="arithmetic" k2="-1" k3="1"/>
<feColorMatrix type="matrix" values="0 0 0 0 0.203922 0 0 0 0 0.952941 0 0 0 0 0.576471 0 0 0 0.75 0"/>
<feBlend mode="normal" in2="shape" result="effect1_innerShadow_953_33494"/>
</filter>
<filter id="filter1_i_953_33494" x="14.4375" y="2.625" width="5.25" height="17.0625" filterUnits="userSpaceOnUse" color-interpolation-filters="sRGB">
<feFlood flood-opacity="0" result="BackgroundImageFix"/>
<feBlend mode="normal" in="SourceGraphic" in2="BackgroundImageFix" result="shape"/>
<feColorMatrix in="SourceAlpha" type="matrix" values="0 0 0 0 0 0 0 0 0 0 0 0 0 0 0 0 0 0 127 0" result="hardAlpha"/>
<feOffset/>
<feGaussianBlur stdDeviation="2.1"/>
<feComposite in2="hardAlpha" operator="arithmetic" k2="-1" k3="1"/>
<feColorMatrix type="matrix" values="0 0 0 0 0.203922 0 0 0 0 0.952941 0 0 0 0 0.576471 0 0 0 0.75 0"/>
<feBlend mode="normal" in2="shape" result="effect1_innerShadow_953_33494"/>
</filter>
<filter id="filter2_i_953_33494" x="1.3125" y="2.625" width="5.25" height="17.0625" filterUnits="userSpaceOnUse" color-interpolation-filters="sRGB">
<feFlood flood-opacity="0" result="BackgroundImageFix"/>
<feBlend mode="normal" in="SourceGraphic" in2="BackgroundImageFix" result="shape"/>
<feColorMatrix in="SourceAlpha" type="matrix" values="0 0 0 0 0 0 0 0 0 0 0 0 0 0 0 0 0 0 127 0" result="hardAlpha"/>
<feOffset/>
<feGaussianBlur stdDeviation="2.1"/>
<feComposite in2="hardAlpha" operator="arithmetic" k2="-1" k3="1"/>
<feColorMatrix type="matrix" values="0 0 0 0 0.203922 0 0 0 0 0.952941 0 0 0 0 0.576471 0 0 0 0.75 0"/>
<feBlend mode="normal" in2="shape" result="effect1_innerShadow_953_33494"/>
</filter>
</defs>
</svg>
