<svg width="25" height="18" viewBox="0 0 25 18" fill="none" xmlns="http://www.w3.org/2000/svg">
<g filter="url(#filter0_i_953_33466)">
<path fill-rule="evenodd" clip-rule="evenodd" d="M5.93137 13.0242C4.17566 11.552 2.92163 9.86918 2.33333 9C2.92163 8.13082 4.17566 6.44803 5.93137 4.97581C7.74402 3.45583 9.98221 2.25 12.5 2.25C15.0178 2.25 17.256 3.45583 19.0686 4.97581C20.8244 6.44803 22.0784 8.13082 22.6667 9C22.0784 9.86918 20.8244 11.552 19.0686 13.0242C17.256 14.5442 15.0178 15.75 12.5 15.75C9.98221 15.75 7.74402 14.5442 5.93137 13.0242ZM12.5 0C9.21198 0 6.45664 1.56895 4.42902 3.26919C2.39403 4.97561 0.981864 6.9048 0.35515 7.84102C-0.118383 8.54831 -0.118383 9.45169 0.35515 10.159C0.981864 11.0952 2.39403 13.0244 4.42902 14.7309C6.45664 16.4311 9.21198 18 12.5 18C15.788 18 18.5434 16.4311 20.571 14.7309C22.606 13.0244 24.0181 11.0952 24.6449 10.159C25.1184 9.45169 25.1184 8.54831 24.6449 7.84102C24.0181 6.9048 22.606 4.97561 20.571 3.26919C18.5434 1.56895 15.788 0 12.5 0ZM10.1946 9C10.1946 7.75733 11.2268 6.75 12.5 6.75C13.7732 6.75 14.8053 7.75733 14.8053 9C14.8053 10.2427 13.7732 11.25 12.5 11.25C11.2268 11.25 10.1946 10.2427 10.1946 9ZM12.5 4.5C9.95357 4.5 7.88928 6.51472 7.88928 9C7.88928 11.4852 9.95357 13.5 12.5 13.5C15.0465 13.5 17.1107 11.4852 17.1107 9C17.1107 6.51472 15.0465 4.5 12.5 4.5Z" fill="white"/>
</g>
<defs>
<filter id="filter0_i_953_33466" x="0" y="0" width="25" height="18" filterUnits="userSpaceOnUse" color-interpolation-filters="sRGB">
<feFlood flood-opacity="0" result="BackgroundImageFix"/>
<feBlend mode="normal" in="SourceGraphic" in2="BackgroundImageFix" result="shape"/>
<feColorMatrix in="SourceAlpha" type="matrix" values="0 0 0 0 0 0 0 0 0 0 0 0 0 0 0 0 0 0 127 0" result="hardAlpha"/>
<feOffset/>
<feGaussianBlur stdDeviation="25"/>
<feComposite in2="hardAlpha" operator="arithmetic" k2="-1" k3="1"/>
<feColorMatrix type="matrix" values="0 0 0 0 0.619608 0 0 0 0 0.654902 0 0 0 0 0.956863 0 0 0 1 0"/>
<feBlend mode="normal" in2="shape" result="effect1_innerShadow_953_33466"/>
</filter>
</defs>
</svg>
