<svg width="19" height="25" viewBox="0 0 19 25" fill="none" xmlns="http://www.w3.org/2000/svg">
<path d="M13.5 6.25H4.5M4.5 9.25H10M3.5 23.75H15C15.8333 23.75 17.5 23.25 17.5 21.25C17.5 19.25 17.5 8.75 17.5 3.75C17.3333 2.91667 16.6 1.25 15 1.25C13.4 1.25 6.66667 1.25 3.5 1.25C2.66667 1.41667 1 2.15 1 3.75C1 5.35 1 16.0833 1 21.25C1 22.0833 1.5 23.75 3.5 23.75ZM6.5 12.25H13C14 12.25 14 12.85 14 13.25C14 13.65 14 17.4167 14 19.25C13.8333 19.5833 13.3 20.25 12.5 20.25C11.7 20.25 6.83333 20.25 4.5 20.25C4.33333 20.0833 4 19.65 4 19.25C4 18.85 4 15.0833 4 13.25C4 12.9167 4.1 12.25 4.5 12.25C4.9 12.25 6 12.25 6.5 12.25Z" stroke="white" stroke-width="2" stroke-linecap="round" stroke-linejoin="round"/>
</svg>
