<svg width="26" height="26" viewBox="0 0 26 26" fill="none" xmlns="http://www.w3.org/2000/svg">
<rect width="26" height="26" rx="13" fill="white"/>
<path d="M12 11.7367L12.0547 11.7051C12.2256 11.604 12.4175 11.563 12.6076 11.587C12.7976 11.6109 12.9779 11.6989 13.127 11.8405C13.2761 11.982 13.3879 12.1712 13.449 12.3856C13.5102 12.6 13.5181 12.8307 13.472 13.0504L12.528 17.5281C12.4815 17.7479 12.4893 17.9788 12.5503 18.1935C12.6113 18.4082 12.723 18.5976 12.8722 18.7394C13.0214 18.8812 13.2018 18.9693 13.392 18.9933C13.5822 19.0173 13.7742 18.9763 13.9453 18.8749L14 18.8418M13 7H13.0107V7.01263H13V7Z" stroke="black" stroke-width="2" stroke-linecap="round" stroke-linejoin="round"/>
</svg>
