<svg width="23" height="23" viewBox="0 0 23 23" fill="none" xmlns="http://www.w3.org/2000/svg">
<path d="M11.3706 3.85156C8.46688 3.85156 6.10938 6.20906 6.10938 9.11281C6.10938 10.9528 7.05812 12.6491 8.63937 13.5978V16.4153C8.63937 17.9103 9.87563 19.1466 11.3706 19.1466C12.8656 19.1466 14.1019 17.9103 14.1019 16.4153V13.5978C15.6831 12.6491 16.6319 10.9528 16.6319 9.08406C16.6319 6.20906 14.2744 3.85156 11.3706 3.85156ZM11.3706 17.9391C10.5369 17.9391 9.84687 17.2491 9.84687 16.4153V15.6678C10.3356 15.8116 10.8531 15.8978 11.3706 15.8978C11.8881 15.8978 12.4056 15.8116 12.8944 15.6678V16.4153C12.8944 17.2778 12.2331 17.9391 11.3706 17.9391ZM13.2394 12.7066C13.0381 12.7928 12.8944 13.0228 12.8944 13.2528V14.3741C12.4056 14.5753 11.8881 14.6616 11.3706 14.6616C10.8244 14.6616 10.3356 14.5466 9.84687 14.3741V13.2528C9.84687 13.0803 9.76063 12.8791 9.61688 12.7641C9.58812 12.7353 9.55937 12.7066 9.50187 12.7066C8.15062 12.0166 7.31687 10.6366 7.31687 9.11281C7.31687 6.87031 9.12813 5.05906 11.3706 5.05906C13.6131 5.05906 15.4244 6.87031 15.4244 9.11281C15.4244 10.6366 14.5906 12.0166 13.2394 12.7066ZM12.8944 8.85406C12.4344 8.53781 11.9169 8.39406 11.3706 8.39406C10.8244 8.39406 10.2781 8.56656 9.84687 8.85406C9.55937 9.02656 9.50187 9.42906 9.67438 9.68781C9.78938 9.86031 9.99062 9.94656 10.1631 9.94656C10.2781 9.94656 10.3931 9.91781 10.5081 9.83156C11.0256 9.48656 11.7156 9.48656 12.2044 9.83156C12.4919 10.0041 12.8656 9.94656 13.0381 9.65906C13.2394 9.42906 13.1819 9.05531 12.8944 8.85406Z" fill="white"/>
</svg>
