<svg width="24" height="25" viewBox="0 0 24 25" fill="none" xmlns="http://www.w3.org/2000/svg">
<path d="M8.99947 21.9361C8.59947 25.9361 5.8328 24.6028 4.49947 23.4361C4.49947 23.4361 3.49929 23.4366 2.49929 22.4366C1.49929 21.4366 0.5 16.4375 0.5 14.9375V14.9364C0.5 13.4355 0.5 9.43662 1.99947 5.93656C3.99929 2.43743 5.99872 1.93969 6.99929 1.43885C8.99929 0.437723 12.3714 0.256355 13.9995 0.436556C16.8641 0.754866 19.3503 2.3133 20.9993 4.43656C21.9405 5.6485 22.4543 7.16472 22.9995 8.43655C24.4996 11.9365 22.4995 19.4366 21.9995 20.9366C21.4995 22.4366 20.4995 23.4361 19.4995 23.4366C18.4995 24.4366 15.4995 23.9366 14.9995 22.9366C14.4995 21.9366 16.4995 16.9366 16.9995 15.4366C18.9995 13.4366 19.9995 14.9361 20.9995 14.9366C21.9995 13.9366 20.4995 7.93656 19.9995 6.93656C19.4995 5.93656 15.4995 3.43721 13.9995 2.93721C12.4995 2.43721 8.99947 2.93721 5.99947 4.93721C2.99947 6.93721 2.99947 14.4372 2.99947 15.4361C4.19947 13.8361 5.8328 14.4361 6.49947 14.9361C6.99947 16.4361 8.19947 19.9361 8.99947 21.9361Z" fill="#808080"/>
</svg>
