<svg width="10" height="10" viewBox="0 0 10 10" fill="none" xmlns="http://www.w3.org/2000/svg">
<path d="M8.94896 0.153596C8.86851 -0.0511988 8.57971 -0.0511988 8.49926 0.153596L8.28406 0.701236C8.25951 0.763761 8.21021 0.813256 8.14791 0.837916L7.60226 1.0539C7.39821 1.13467 7.39821 1.4245 7.60226 1.50527L8.14791 1.72126C8.21021 1.74592 8.25951 1.79541 8.28406 1.85794L8.49926 2.40558C8.57971 2.61037 8.86851 2.61037 8.94896 2.40558L9.16416 1.85794C9.18871 1.79541 9.23801 1.74592 9.30031 1.72126L9.84596 1.50527C10.05 1.4245 10.05 1.13467 9.84596 1.0539L9.30031 0.837916C9.23801 0.813256 9.18871 0.763761 9.16416 0.701236L8.94896 0.153596Z" fill="white"/>
<path d="M7.01634 3.06765C6.93584 2.86287 6.64709 2.86287 6.56659 3.06765L6.48814 3.26733C6.46359 3.32986 6.41429 3.37934 6.35199 3.404L6.15304 3.48276C5.94899 3.56353 5.94899 3.85335 6.15304 3.93412L6.35199 4.01287C6.41429 4.03752 6.46359 4.08702 6.48814 4.14957L6.56659 4.34922C6.64709 4.55402 6.93584 4.55402 7.01634 4.34922L7.09479 4.14957C7.11934 4.08702 7.16864 4.03752 7.23094 4.01287L7.42989 3.93412C7.63394 3.85335 7.63394 3.56353 7.42989 3.48276L7.23094 3.404C7.16864 3.37934 7.11934 3.32986 7.09479 3.26733L7.01634 3.06765Z" fill="white"/>
<path d="M5 10C7.7614 10 10 7.7614 10 5C10 4.76865 9.65325 4.7304 9.5336 4.9284C8.96445 5.8703 7.93075 6.5 6.75 6.5C4.95505 6.5 3.5 5.04495 3.5 3.25C3.5 2.06922 4.1297 1.03553 5.0716 0.46638C5.2696 0.346735 5.23135 0 5 0C2.23857 0 0 2.23857 0 5C0 7.7614 2.23857 10 5 10Z" fill="white"/>
</svg>
