<svg width="14" height="14" viewBox="0 0 14 14" fill="none" xmlns="http://www.w3.org/2000/svg">
<path d="M7 1V1.66667V1ZM7 12.3333V13V12.3333ZM1.66667 7H1H1.66667ZM3.20941 3.20941L2.66667 2.66667L3.20941 3.20941ZM10.7906 3.20941L11.3333 2.66667L10.7906 3.20941ZM3.20941 10.7933L2.66667 11.3334L3.20941 10.7933ZM10.7906 10.7933L11.3333 11.3334L10.7906 10.7933ZM13 7H12.3333H13ZM9.66667 7C9.66667 8.47273 8.47273 9.66667 7 9.66667C5.52724 9.66667 4.33333 8.47273 4.33333 7C4.33333 5.52724 5.52724 4.33333 7 4.33333C8.47273 4.33333 9.66667 5.52724 9.66667 7Z" fill="#8B857B"/>
<path d="M7 1V1.66667M7 12.3333V13M1.66667 7H1M3.20941 3.20941L2.66667 2.66667M10.7906 3.20941L11.3333 2.66667M3.20941 10.7933L2.66667 11.3334M10.7906 10.7933L11.3333 11.3334M13 7H12.3333M9.66667 7C9.66667 8.47273 8.47273 9.66667 7 9.66667C5.52724 9.66667 4.33333 8.47273 4.33333 7C4.33333 5.52724 5.52724 4.33333 7 4.33333C8.47273 4.33333 9.66667 5.52724 9.66667 7Z" stroke="#8B857B" stroke-linecap="round" stroke-linejoin="round"/>
</svg>
