<svg width="15" height="12" viewBox="0 0 15 12" fill="none" xmlns="http://www.w3.org/2000/svg">
<path d="M3.75 11.2C3.75 10.1392 4.14509 9.12187 4.84835 8.37176C5.55161 7.62166 6.50544 7.20025 7.5 7.20025C8.49456 7.20025 9.44839 7.62166 10.1517 8.37176C10.8549 9.12187 11.25 10.1392 11.25 11.2C11.25 11.4122 11.171 11.6157 11.0303 11.7657C10.8897 11.9157 10.6989 12 10.5 12C10.3011 12 10.1103 11.9157 9.96967 11.7657C9.82902 11.6157 9.75 11.4122 9.75 11.2C9.75 10.5636 9.51295 9.95314 9.09099 9.50307C8.66903 9.05301 8.09674 8.80017 7.5 8.80017C6.90326 8.80017 6.33097 9.05301 5.90901 9.50307C5.48705 9.95314 5.25 10.5636 5.25 11.2C5.25 11.4122 5.17098 11.6157 5.03033 11.7657C4.88968 11.9157 4.69891 12 4.5 12C4.30109 12 4.11032 11.9157 3.96967 11.7657C3.82902 11.6157 3.75 11.4122 3.75 11.2ZM12 7.53144L12.5303 6.96586C12.6669 6.81499 12.7425 6.61292 12.7408 6.40317C12.739 6.19343 12.6602 5.99279 12.5211 5.84447C12.3821 5.69615 12.1939 5.61202 11.9973 5.6102C11.8007 5.60837 11.6112 5.68901 11.4697 5.83472L10.9395 6.40029C10.8679 6.47409 10.8107 6.56236 10.7714 6.65996C10.7321 6.75756 10.7114 6.86253 10.7106 6.96874C10.7097 7.07496 10.7287 7.1803 10.7664 7.27861C10.8041 7.37692 10.8598 7.46624 10.9302 7.54135C11.0006 7.61646 11.0844 7.67586 11.1765 7.71608C11.2687 7.75631 11.3675 7.77655 11.4671 7.77562C11.5666 7.7747 11.665 7.75263 11.7566 7.71071C11.8481 7.66878 11.9308 7.60784 12 7.53144ZM13.5 12H14.25C14.4489 12 14.6397 11.9157 14.7803 11.7657C14.921 11.6157 15 11.4122 15 11.2C15 10.9879 14.921 10.7844 14.7803 10.6344C14.6397 10.4844 14.4489 10.4001 14.25 10.4001H13.5C13.3011 10.4001 13.1103 10.4844 12.9697 10.6344C12.829 10.7844 12.75 10.9879 12.75 11.2C12.75 11.4122 12.829 11.6157 12.9697 11.7657C13.1103 11.9157 13.3011 12 13.5 12ZM1.5 10.4001H0.75C0.551088 10.4001 0.360322 10.4844 0.21967 10.6344C0.0790176 10.7844 0 10.9879 0 11.2C0 11.4122 0.0790176 11.6157 0.21967 11.7657C0.360322 11.9157 0.551088 12 0.75 12H1.5C1.69891 12 1.88968 11.9157 2.03033 11.7657C2.17098 11.6157 2.25 11.4122 2.25 11.2C2.25 10.9879 2.17098 10.7844 2.03033 10.6344C1.88968 10.4844 1.69891 10.4001 1.5 10.4001ZM2.46975 6.96586L3 7.53144C3.06919 7.60784 3.15194 7.66878 3.24345 7.71071C3.33495 7.75263 3.43336 7.7747 3.53295 7.77562C3.63253 7.77655 3.73129 7.75631 3.82347 7.71608C3.91564 7.67586 3.99938 7.61646 4.0698 7.54135C4.14022 7.46624 4.19591 7.37692 4.23362 7.27861C4.27133 7.1803 4.2903 7.07496 4.28944 6.96874C4.28857 6.86253 4.26788 6.75756 4.22858 6.65996C4.18927 6.56236 4.13213 6.47409 4.0605 6.40029L3.53025 5.83472C3.3888 5.68901 3.19935 5.60837 3.0027 5.6102C2.80605 5.61202 2.61794 5.69615 2.47889 5.84447C2.33983 5.99279 2.26095 6.19343 2.25924 6.40317C2.25754 6.61292 2.33313 6.81499 2.46975 6.96586ZM7.5 6.40029C7.69891 6.40029 7.88968 6.31601 8.03033 6.16599C8.17098 6.01597 8.25 5.8125 8.25 5.60034V2.73169L9.21975 3.76603C9.3612 3.91175 9.55065 3.99238 9.7473 3.99056C9.94395 3.98874 10.1321 3.90461 10.2711 3.75629C10.4102 3.60797 10.489 3.40733 10.4908 3.19758C10.4925 2.98784 10.4169 2.78577 10.2802 2.63489L8.03025 0.235018C7.96058 0.16052 7.87782 0.101415 7.7867 0.0610868C7.69558 0.0207586 7.5979 0 7.49925 0C7.4006 0 7.30292 0.0207586 7.2118 0.0610868C7.12068 0.101415 7.03792 0.16052 6.96825 0.235018L4.71825 2.63489C4.64862 2.70927 4.5934 2.79755 4.55575 2.89468C4.5181 2.99182 4.49876 3.09592 4.49883 3.20103C4.49897 3.41331 4.57817 3.61683 4.719 3.76683C4.85983 3.91683 5.05076 4.00102 5.24978 4.00086C5.4488 4.00071 5.63962 3.91624 5.78025 3.76603L6.75 2.73169V5.60034C6.75 5.8125 6.82902 6.01597 6.96967 6.16599C7.11032 6.31601 7.30109 6.40029 7.5 6.40029Z" fill="#EC9B46"/>
</svg>
