<svg width="23" height="23" viewBox="0 0 23 23" fill="none" xmlns="http://www.w3.org/2000/svg">
<path d="M7.66536 15.3331C7.1361 15.3331 6.70703 15.7622 6.70703 16.2915C6.70703 16.8208 7.1361 17.2498 7.66536 17.2498C8.19463 17.2498 8.6237 16.8208 8.6237 16.2915C8.6237 15.7622 8.19463 15.3331 7.66536 15.3331ZM7.66536 15.3331L7.67214 11.5M7.66536 16.2915L7.67214 16.2983M19.1654 4.79167C19.1654 5.85021 18.3073 6.70833 17.2487 6.70833C16.1901 6.70833 15.332 5.85021 15.332 4.79167C15.332 3.73312 16.1901 2.875 17.2487 2.875C18.3073 2.875 19.1654 3.73312 19.1654 4.79167ZM11.4987 16.2915C11.4987 18.4086 9.78242 20.1248 7.66536 20.1248C5.54827 20.1248 3.83203 18.4086 3.83203 16.2915C3.83203 15.3193 4.19394 14.4316 4.79036 13.7559V5.75C4.79036 4.16219 6.07755 2.875 7.66536 2.875C9.25318 2.875 10.5404 4.16219 10.5404 5.75V13.7559C11.1368 14.4316 11.4987 15.3193 11.4987 16.2915Z" stroke="white" stroke-linecap="round" stroke-linejoin="round"/>
</svg>
